<?xml version="1.0" encoding="utf-8"?>
<!-- Generator: Adobe Illustrator 16.0.3, SVG Export Plug-In . SVG Version: 6.00 Build 0)  -->
<!DOCTYPE svg PUBLIC "-//W3C//DTD SVG 1.1//EN" "http://www.w3.org/Graphics/SVG/1.1/DTD/svg11.dtd">
<svg version="1.1" id="Capa_1" xmlns="http://www.w3.org/2000/svg" xmlns:xlink="http://www.w3.org/1999/xlink" x="0px" y="0px"
	 width="579px" height="501px" viewBox="0 0 579 501" enable-background="new 0 0 579 501" xml:space="preserve">
<g>
	<g>
		<g>
			<rect x="138" y="140" fill="#FFFFFF" width="363" height="18"/>
			<rect x="138" y="200" fill="#FFFFFF" width="363" height="17"/>
		</g>
		<path fill="#FFFFFF" d="M521.865,266.439c-3.239,0-6.172,0-9.295,0H220.599h-93.804c-44.696,0-43.878-57.932-43.878-94.846
			c0-36.914-0.818-94.827,43.878-94.827h78.053h15.751h264.854c11.402,0,23.333,0,36.413,0c30.472,0,30.472-47.259,0-47.259
			c-13.461,0-25.722,0-37.416,0H220.599h-93.804c-70.755,0-91.133,79.117-91.133,142.086c0,62.979,20.378,142.101,91.133,142.101
			h93.804h15.752H512.57c3.123,0,6.056,0,9.295,0C552.337,313.694,552.337,266.439,521.865,266.439z"/>
	</g>
	<g>
		<path fill="#FFFFFF" d="M54.718,468.348c-4.684-2.855-8.131-6.868-10.335-12.047c-2.211-5.156-3.306-11.222-3.306-18.173
			c0-8.271,1.43-15.034,4.29-20.265s6.628-9.016,11.317-11.366c4.685-2.344,9.886-3.515,15.606-3.515
			c4.198,0,8.076,0.518,11.625,1.555c3.545,1.024,7.009,2.55,10.381,4.547l-4.775,8.779c-5.397-3.233-10.972-4.856-16.724-4.856
			c-6.719,0-11.647,2.16-14.803,6.464c-3.15,4.304-4.721,10.322-4.721,18.038c0,7.917,1.73,14.065,5.194,18.439
			c3.462,4.374,8.447,6.564,14.953,6.564c3.321,0,6.268-0.436,8.828-1.301c2.561-0.85,5.194-2.079,7.894-3.665l4.676,8.479
			c-3.727,2.206-7.326,3.859-10.804,4.961c-3.476,1.104-7.286,1.659-11.416,1.659C65.357,472.646,59.403,471.21,54.718,468.348z"/>
		<path fill="#FFFFFF" d="M109.803,469.385c-3.378-2.169-5.91-5.093-7.6-8.789c-1.688-3.675-2.527-7.808-2.527-12.348
			c0-5.718,1.089-10.365,3.254-13.951c2.169-3.577,5.084-6.185,8.734-7.808c3.649-1.607,7.748-2.427,12.293-2.427
			c5.033,0,9.233,1.053,12.609,3.16c3.377,2.107,5.91,4.976,7.593,8.617c1.69,3.656,2.534,7.835,2.534,12.51
			c0,5.657-1.084,10.283-3.255,13.899c-2.169,3.623-5.08,6.255-8.729,7.905c-3.654,1.653-7.791,2.491-12.407,2.491
			C117.347,472.646,113.18,471.554,109.803,469.385z M132.373,459.771c1.829-2.779,2.747-6.626,2.747-11.522
			c0-4.893-0.95-8.696-2.855-11.411c-1.902-2.73-4.821-4.083-8.765-4.083c-4.358,0-7.495,1.334-9.397,4.021
			c-1.897,2.696-2.851,6.516-2.851,11.473c0,4.832,0.985,8.654,2.956,11.467c1.97,2.832,4.967,4.24,8.979,4.24
			C127.475,463.955,130.534,462.565,132.373,459.771z"/>
		<path fill="#FFFFFF" d="M197.645,399.062v72.237h-9.82l-0.722-3.421c-4.894,3.176-9.678,4.768-14.363,4.768
			c-6.205,0-10.938-2.016-14.212-6.046c-3.268-4.034-4.911-9.734-4.911-17.115c0-5.573,1.089-10.285,3.259-14.099
			c2.169-3.822,5.042-6.663,8.628-8.525c3.582-1.861,7.545-2.798,11.89-2.798c2.886,0,5.918,0.445,9.092,1.354v-25.229
			L197.645,399.062z M175.688,463.756c3.453,0,7.058-1.107,10.799-3.305V433.68c-2.428-0.828-5.025-1.245-7.79-1.245
			c-2.634,0-4.97,0.626-7.014,1.862c-2.042,1.242-3.637,3.141-4.775,5.69c-1.149,2.543-1.71,5.685-1.71,9.396
			C165.197,458.961,168.687,463.756,175.688,463.756z"/>
		<path fill="#FFFFFF" d="M217.999,469.385c-3.369-2.169-5.905-5.093-7.596-8.789c-1.688-3.675-2.532-7.808-2.532-12.348
			c0-5.718,1.089-10.365,3.259-13.951c2.169-3.577,5.08-6.185,8.729-7.808c3.65-1.607,7.752-2.427,12.303-2.427
			c5.028,0,9.232,1.053,12.605,3.16c3.378,2.107,5.91,4.976,7.594,8.617c1.693,3.656,2.532,7.835,2.532,12.51
			c0,5.657-1.08,10.283-3.255,13.899c-2.168,3.623-5.083,6.255-8.733,7.905c-3.654,1.653-7.786,2.491-12.401,2.491
			C225.548,472.646,221.379,471.554,217.999,469.385z M240.568,459.771c1.834-2.779,2.756-6.626,2.756-11.522
			c0-4.893-0.954-8.696-2.861-11.411c-1.902-2.73-4.825-4.083-8.764-4.083c-4.362,0-7.496,1.334-9.398,4.021
			c-1.902,2.696-2.852,6.516-2.852,11.473c0,4.832,0.982,8.654,2.96,11.467c1.971,2.832,4.962,4.24,8.975,4.24
			C235.67,463.955,238.733,462.565,240.568,459.771z"/>
		<path fill="#FFFFFF" d="M297.994,404.325l24.696,66.246v0.728h-12.402l-6.304-17.774h-26.87l-6.201,17.774h-12.088v-0.728
			l24.595-66.246H297.994z M280.423,444.018h20.15l-10.122-28.734L280.423,444.018z"/>
		<path fill="#FFFFFF" d="M339.126,468.348c-4.689-2.855-8.135-6.868-10.335-12.047c-2.212-5.156-3.309-11.222-3.309-18.173
			c0-8.271,1.43-15.034,4.283-20.265c2.872-5.23,6.638-9.016,11.32-11.366c4.691-2.344,9.889-3.515,15.611-3.515
			c4.196,0,8.069,0.518,11.623,1.555c3.542,1.024,7.012,2.55,10.386,4.547l-4.776,8.779c-5.406-3.233-10.975-4.856-16.724-4.856
			c-6.72,0-11.655,2.16-14.808,6.464c-3.147,4.304-4.721,10.322-4.721,18.038c0,7.917,1.73,14.065,5.193,18.439
			c3.459,4.374,8.447,6.564,14.956,6.564c3.324,0,6.267-0.436,8.832-1.301c2.556-0.85,5.183-2.079,7.892-3.665l4.672,8.479
			c-3.723,2.206-7.322,3.859-10.798,4.961c-3.485,1.104-7.293,1.659-11.423,1.659C349.768,472.646,343.81,471.21,339.126,468.348z"
			/>
		<path fill="#FFFFFF" d="M394.207,469.385c-3.378-2.169-5.911-5.093-7.596-8.789c-1.688-3.675-2.532-7.808-2.532-12.348
			c0-5.718,1.086-10.365,3.255-13.951c2.175-3.577,5.078-6.185,8.733-7.808c3.65-1.607,7.755-2.427,12.297-2.427
			c5.031,0,9.229,1.053,12.606,3.16c3.379,2.107,5.911,4.976,7.601,8.617c1.687,3.656,2.532,7.835,2.532,12.51
			c0,5.657-1.093,10.283-3.261,13.899c-2.169,3.623-5.077,6.255-8.731,7.905c-3.651,1.653-7.785,2.491-12.396,2.491
			C401.75,472.646,397.583,471.554,394.207,469.385z M416.777,459.771c1.833-2.779,2.747-6.626,2.747-11.522
			c0-4.893-0.956-8.696-2.852-11.411c-1.905-2.73-4.825-4.083-8.771-4.083c-4.359,0-7.488,1.334-9.393,4.021
			c-1.905,2.696-2.859,6.516-2.859,11.473c0,4.832,0.989,8.654,2.959,11.467c1.974,2.832,4.97,4.24,8.979,4.24
			C411.883,463.955,414.937,462.565,416.777,459.771z"/>
		<path fill="#FFFFFF" d="M482.054,399.062v72.237h-9.82l-0.726-3.421c-4.891,3.176-9.678,4.768-14.36,4.768
			c-6.209,0-10.94-2.016-14.215-6.046c-3.271-4.034-4.907-9.734-4.907-17.115c0-5.573,1.086-10.285,3.258-14.099
			c2.171-3.822,5.045-6.663,8.625-8.525c3.586-1.861,7.546-2.798,11.89-2.798c2.892,0,5.918,0.445,9.095,1.354v-25.229
			L482.054,399.062z M460.098,463.756c3.454,0,7.057-1.107,10.795-3.305V433.68c-2.428-0.828-5.023-1.245-7.794-1.245
			c-2.63,0-4.965,0.626-7.011,1.862c-2.042,1.242-3.632,3.141-4.771,5.69c-1.15,2.543-1.713,5.685-1.713,9.396
			C449.604,458.961,453.094,463.756,460.098,463.756z"/>
		<path fill="#FFFFFF" d="M502.404,469.385c-3.371-2.169-5.908-5.093-7.593-8.789c-1.687-3.675-2.533-7.808-2.533-12.348
			c0-5.718,1.086-10.365,3.258-13.951c2.172-3.577,5.076-6.185,8.733-7.808c3.647-1.607,7.746-2.427,12.295-2.427
			c5.031,0,9.233,1.053,12.611,3.16c3.371,2.107,5.905,4.976,7.589,8.617c1.69,3.656,2.537,7.835,2.537,12.51
			c0,5.657-1.089,10.283-3.258,13.899c-2.172,3.623-5.086,6.255-8.733,7.905c-3.653,1.653-7.786,2.491-12.396,2.491
			C509.954,472.646,505.785,471.554,502.404,469.385z M524.977,459.771c1.834-2.779,2.751-6.626,2.751-11.522
			c0-4.893-0.954-8.696-2.855-11.411c-1.902-2.73-4.832-4.083-8.768-4.083c-4.365,0-7.491,1.334-9.396,4.021
			c-1.905,2.696-2.85,6.516-2.85,11.473c0,4.832,0.979,8.654,2.951,11.467c1.976,2.832,4.97,4.24,8.981,4.24
			C520.077,463.955,523.139,462.565,524.977,459.771z"/>
	</g>
	<g>
		<polygon fill="#FFFFFF" points="53,373 68.089,373 68.915,368 53,368 53,357 71,357 71,351 46,351 46,390 72,390 72,384 53,384 		
			"/>
		<path fill="#FFFFFF" d="M94,363.406c-1-0.491-2.997-0.73-4.594-0.73c-2.532,0-4.637,0.553-6.713,1.639
			c-2.105,1.097-3.695,2.78-4.954,5.008c-1.261,2.208-1.842,4.981-1.842,8.241c0,4.285,0.997,7.647,2.905,9.991
			c1.913,2.368,4.738,3.567,8.37,3.567c2.654,0,5.406-1.06,8.167-2.806L95.744,390H102v-41.779l-8,0.704V363.406z M94,383.768
			c-1,1.21-3.637,1.824-5.58,1.824c-3.938,0-5.621-2.647-5.621-8.093c0-2.114,0.441-3.913,1.083-5.351
			c0.646-1.439,1.583-2.482,2.743-3.188c1.14-0.696,2.03-1.051,3.505-1.051c1.529,0,3.87,0.223,3.87,0.66V383.768z"/>
		<polygon fill="#FFFFFF" points="108,363.593 108,390 116,390 116,362.899 108.758,363.576 		"/>
		<path fill="#FFFFFF" d="M114.791,350.837c-0.704-0.408-1.478-0.615-2.3-0.615c-0.787,0-1.534,0.207-2.222,0.618
			c-0.683,0.418-1.236,0.968-1.646,1.638c-0.413,0.693-0.622,1.441-0.622,2.226c0,0.802,0.204,1.529,0.624,2.226
			c0.409,0.667,0.964,1.212,1.648,1.618c0.669,0.393,1.416,0.592,2.219,0.592c0.839,0,1.613-0.197,2.299-0.59
			c0.708-0.402,1.26-0.932,1.688-1.622c0.418-0.702,0.621-1.429,0.621-2.224c0-0.776-0.208-1.524-0.623-2.229
			C116.049,351.786,115.499,351.251,114.791,350.837z"/>
		<path fill="#FFFFFF" d="M138.964,384.534c-0.726,0.284-1.42,0.518-2.125,0.712c-0.53,0.152-1.097,0.226-1.735,0.226
			c-0.979,0-1.768-0.302-2.273-0.923c-0.506-0.639-0.831-1.688-0.831-3.117V370h7.69l0.708-7H132v-6.439l-6.25,0.997l0.25,0.026V363
			h-5v7h5v12.456c0,1.945,0.021,3.582,0.755,4.862c0.725,1.31,1.561,2.281,2.828,2.885c1.249,0.609,2.594,0.919,4.171,0.919
			c2.508,0,4.906-0.611,7.214-1.82l0.136-0.083l-1.949-4.755L138.964,384.534z"/>
		<path fill="#FFFFFF" d="M164.388,364.541c-1.967-1.237-4.453-1.865-7.386-1.865c-2.635,0-5.049,0.48-7.179,1.425
			c-2.148,0.962-3.876,2.507-5.135,4.591c-1.263,2.104-1.904,4.846-1.904,8.154c0,2.646,0.498,5.07,1.479,7.207
			c0.996,2.186,2.454,3.873,4.458,5.161c1.97,1.266,4.436,1.908,7.329,1.908c2.686,0,5.122-0.484,7.238-1.44
			c2.13-0.963,3.856-2.529,5.127-4.654c1.286-2.146,1.911-4.805,1.911-8.127c0-2.716-0.497-5.172-1.479-7.301
			C167.857,367.465,166.356,365.762,164.388,364.541z M156.554,385.717c-2.239,0-3.927-0.796-5.019-2.363
			c-1.125-1.609-1.672-3.738-1.672-6.508c0-2.854,0.527-4.985,1.613-6.518c1.038-1.484,2.81-2.237,5.264-2.237
			c2.228,0,3.83,0.74,4.901,2.265c1.07,1.537,1.613,3.722,1.613,6.49s-0.524,4.97-1.558,6.545
			C160.677,384.935,158.946,385.717,156.554,385.717z"/>
		<path fill="#FFFFFF" d="M185.428,363.725c-1.153,0.599-1.428,1.462-3.428,2.574v-3.397l-6.239,0.623l0.239,0.015V390h6v-16.971
			c2-1.374,2.285-2.319,3.245-2.809c0.968-0.503,2.201-0.759,3.334-0.759c0.641,0,1.333,0.06,1.892,0.176
			c0.518,0.109,1.136,0.282,1.802,0.529l0.245,0.083l1.158-6.98l-0.329-0.049C190.537,362.388,187.781,362.5,185.428,363.725z"/>
		<polygon fill="#FFFFFF" points="198,363.593 198,390 204,390 204,362.899 197.757,363.576 		"/>
		<path fill="#FFFFFF" d="M203.579,350.837c-1.374-0.796-3.108-0.84-4.521,0.003c-0.683,0.416-1.236,0.967-1.646,1.636
			c-0.417,0.693-0.628,1.443-0.628,2.228c0,0.802,0.206,1.53,0.629,2.226c0.409,0.669,0.963,1.213,1.647,1.618
			c0.669,0.393,1.415,0.592,2.215,0.592c0.842,0,1.617-0.197,2.303-0.59c0.695-0.397,1.262-0.942,1.688-1.623
			c0.418-0.704,0.623-1.432,0.623-2.223c0-0.773-0.209-1.521-0.625-2.23C204.841,351.797,204.275,351.246,203.579,350.837z"/>
		<path fill="#FFFFFF" d="M223.708,362.676c-2.275,0-4.483,0.35-6.561,1.037c-2.031,0.673-4.038,1.704-5.963,3.067l-0.153,0.107
			l2.836,4.438l0.166-0.105c3.102-1.997,6.036-3.01,8.722-3.01c1.521,0,2.166,0.357,2.761,1.063
			c0.605,0.717,0.483,1.923,0.483,3.579v0.823c-3,0.085-5.506,0.483-8.021,1.185c-2.562,0.729-4.421,1.842-5.951,3.309
			c-1.546,1.487-2.224,3.353-2.224,5.543c0,1.454,0.405,2.764,1.097,3.899c0.699,1.122,1.707,1.995,2.939,2.593
			c1.228,0.609,2.685,0.919,4.307,0.919c1.623,0,3.246-0.234,4.808-0.697c1.468-0.436,2.924-1.335,4.326-2.325l0.445,1.9H234
			v-18.348c0-3.099-1.001-5.396-2.668-6.831C229.677,363.398,227.01,362.676,223.708,362.676z M226,378.368v5.397
			c-1,1.295-4.063,1.951-6.222,1.951c-1.059,0-1.659-0.237-2.207-0.704c-0.53-0.452-0.692-1.132-0.692-2.02
			c0-1.367,0.479-2.41,2.238-3.192C220.87,379.015,223,378.532,226,378.368z"/>
		<polygon fill="#FFFFFF" points="240,348.925 240,390 248,390 248,348.221 		"/>
	</g>
</g>
</svg>
